<?xml version="1.0" encoding="UTF-8" standalone="no"?>
<!-- Created with Inkscape (http://www.inkscape.org/) -->
<svg
   xmlns:dc="http://purl.org/dc/elements/1.1/"
   xmlns:cc="http://creativecommons.org/ns#"
   xmlns:rdf="http://www.w3.org/1999/02/22-rdf-syntax-ns#"
   xmlns:svg="http://www.w3.org/2000/svg"
   xmlns="http://www.w3.org/2000/svg"
   xmlns:sodipodi="http://sodipodi.sourceforge.net/DTD/sodipodi-0.dtd"
   xmlns:inkscape="http://www.inkscape.org/namespaces/inkscape"
   width="144"
   height="144"
   id="svg2"
   sodipodi:version="0.32"
   inkscape:version="0.46"
   version="1.0"
   sodipodi:docbase="/home/dfcastelao/moviditas/remakes/braingames/f1_spirit/svn/trunk/extras"
   sodipodi:docname="brake-1.svg"
   inkscape:output_extension="org.inkscape.output.svg.inkscape"
   inkscape:export-filename="/home/dfcastelao/moviditas/remakes/braingames/f1_spirit/juego/graphics/brake-1.png"
   inkscape:export-xdpi="90"
   inkscape:export-ydpi="90"
   style="display:inline">
  <defs
     id="defs4">
    <inkscape:perspective
       sodipodi:type="inkscape:persp3d"
       inkscape:vp_x="0 : 72 : 1"
       inkscape:vp_y="0 : 1000 : 0"
       inkscape:vp_z="144 : 72 : 1"
       inkscape:persp3d-origin="72 : 48 : 1"
       id="perspective2508" />
    <inkscape:perspective
       id="perspective2575"
       inkscape:persp3d-origin="372.04724 : 350.78739 : 1"
       inkscape:vp_z="744.09448 : 526.18109 : 1"
       inkscape:vp_y="0 : 1000 : 0"
       inkscape:vp_x="0 : 526.18109 : 1"
       sodipodi:type="inkscape:persp3d" />
  </defs>
  <sodipodi:namedview
     id="base"
     pagecolor="#ffffff"
     bordercolor="#666666"
     borderopacity="1.0"
     gridtolerance="10000"
     guidetolerance="10"
     objecttolerance="10"
     inkscape:pageopacity="0.0"
     inkscape:pageshadow="2"
     inkscape:zoom="3.563879"
     inkscape:cx="104.12151"
     inkscape:cy="71.793736"
     inkscape:document-units="px"
     inkscape:current-layer="svg2"
     width="144px"
     height="144px"
     showgrid="false"
     inkscape:grid-points="true"
     showguides="true"
     inkscape:guide-bbox="true"
     inkscape:window-width="1272"
     inkscape:window-height="742"
     inkscape:window-x="0"
     inkscape:window-y="0">
    <inkscape:grid
       id="GridFromPre046Settings"
       type="xygrid"
       originx="0px"
       originy="0px"
       spacingx="1px"
       spacingy="1px"
       color="#0000ff"
       empcolor="#0000ff"
       opacity="0.2"
       empopacity="0.4"
       empspacing="5" />
  </sodipodi:namedview>
  <metadata
     id="metadata7">
    <rdf:RDF>
      <cc:Work
         rdf:about="">
        <dc:format>image/svg+xml</dc:format>
        <dc:type
           rdf:resource="http://purl.org/dc/dcmitype/StillImage" />
      </cc:Work>
    </rdf:RDF>
  </metadata>
  <g
     inkscape:groupmode="layer"
     id="layer2"
     inkscape:label="brakes"
     style="display:inline"
     sodipodi:insensitive="true">
    <g
       id="g3437"
       transform="translate(0,-4)">
      <path
         id="path3389"
         d="M 32,24 C 18.752,24 8,34.752 8,48 C 8,61.248 18.752,72 32,72 C 44.916748,72 55.449543,61.790017 55.96875,49 L 50.8125,49 C 50.923377,48.344943 51,47.686457 51,47 C 51,41.782828 47.652995,37.339405 43,35.6875 L 43,26.6875 C 39.70322,24.982259 35.965447,24 32,24 z M 32,36 C 38.624,36 44,41.376 44,48 C 44,54.624 38.624,60 32,60 C 25.376,60 20,54.624 20,48 C 20,41.376 25.376,36 32,36 z"
         style="opacity:1;fill:none;fill-opacity:1;fill-rule:nonzero;stroke:#ffff00;stroke-width:1;stroke-linecap:round;stroke-linejoin:round;stroke-miterlimit:4;stroke-dasharray:none;stroke-dashoffset:0;stroke-opacity:1" />
      <path
         id="path3407"
         d="M 43,22.75 L 43,35.6875 C 47.652995,37.339405 51,41.782828 51,47 C 51,47.686457 50.923377,48.344943 50.8125,49 L 60.8125,49 C 60.935886,48.014603 61,47.018665 61,46 C 61,34.822 53.349807,25.414932 43,22.75 z"
         style="fill:none;fill-opacity:1;fill-rule:nonzero;stroke:#ffff00;stroke-width:1;stroke-linecap:round;stroke-linejoin:round;stroke-miterlimit:4;stroke-dashoffset:0;stroke-opacity:1" />
      <path
         id="path3421"
         d="M 32,42 C 28.688,42 26,44.688 26,48 C 26,51.312 28.688,54 32,54 C 35.312,54 38,51.312 38,48 C 38,44.688 35.312,42 32,42 z M 32,44 C 34.208,44 36,45.792 36,48 C 36,50.208 34.208,52 32,52 C 29.792,52 28,50.208 28,48 C 28,45.792 29.792,44 32,44 z"
         style="opacity:1;fill:none;fill-opacity:1;fill-rule:nonzero;stroke:#ffff00;stroke-width:1;stroke-linecap:round;stroke-linejoin:round;stroke-miterlimit:4;stroke-dasharray:none;stroke-dashoffset:0;stroke-opacity:1" />
      <path
         d="M 42,48 A 10,10 0 1 1 22,48 A 10,10 0 1 1 42,48 z"
         sodipodi:ry="10"
         sodipodi:rx="10"
         sodipodi:cy="48"
         sodipodi:cx="32"
         id="path3425"
         style="opacity:1;fill:none;fill-opacity:1;fill-rule:nonzero;stroke:#ffff00;stroke-width:1;stroke-linecap:round;stroke-linejoin:round;stroke-miterlimit:4;stroke-dasharray:none;stroke-dashoffset:0;stroke-opacity:1"
         sodipodi:type="arc" />
      <path
         sodipodi:nodetypes="cc"
         id="path3427"
         d="M 27,37 L 18,28"
         style="fill:none;fill-opacity:0.75;fill-rule:evenodd;stroke:#ffff00;stroke-width:1px;stroke-linecap:butt;stroke-linejoin:miter;stroke-opacity:1" />
      <path
         sodipodi:nodetypes="cc"
         style="fill:none;fill-opacity:0.75;fill-rule:evenodd;stroke:#ffff00;stroke-width:1px;stroke-linecap:butt;stroke-linejoin:miter;stroke-opacity:1"
         d="M 46,68 L 37,59"
         id="path3429" />
      <path
         sodipodi:nodetypes="cc"
         id="path3431"
         d="M 43,43 L 47,39"
         style="fill:none;fill-opacity:0.75;fill-rule:evenodd;stroke:#ffff00;stroke-width:1px;stroke-linecap:butt;stroke-linejoin:miter;stroke-opacity:1" />
      <path
         sodipodi:nodetypes="cc"
         style="fill:none;fill-opacity:0.75;fill-rule:evenodd;stroke:#ffff00;stroke-width:1px;stroke-linecap:butt;stroke-linejoin:miter;stroke-opacity:1"
         d="M 12,62 L 21,53"
         id="path3433" />
    </g>
    <g
       id="g3447"
       transform="translate(0,59.968829)">
      <path
         style="opacity:1;fill:none;fill-opacity:1;fill-rule:nonzero;stroke:#ffff00;stroke-width:1;stroke-linecap:round;stroke-linejoin:round;stroke-miterlimit:4;stroke-dasharray:none;stroke-dashoffset:0;stroke-opacity:1"
         d="M 32,24 C 18.752,24 8,34.752 8,48 C 8,61.248 18.752,72 32,72 C 44.916748,72 55.449543,61.790017 55.96875,49 L 50.8125,49 C 50.923377,48.344943 51,47.686457 51,47 C 51,41.782828 47.652995,37.339405 43,35.6875 L 43,26.6875 C 39.70322,24.982259 35.965447,24 32,24 z M 32,36 C 38.624,36 44,41.376 44,48 C 44,54.624 38.624,60 32,60 C 25.376,60 20,54.624 20,48 C 20,41.376 25.376,36 32,36 z"
         id="path3449" />
      <path
         style="fill:none;fill-opacity:1;fill-rule:nonzero;stroke:#ffff00;stroke-width:1;stroke-linecap:round;stroke-linejoin:round;stroke-miterlimit:4;stroke-dashoffset:0;stroke-opacity:1"
         d="M 43,22.75 L 43,35.6875 C 47.652995,37.339405 51,41.782828 51,47 C 51,47.686457 50.923377,48.344943 50.8125,49 L 60.8125,49 C 60.935886,48.014603 61,47.018665 61,46 C 61,34.822 53.349807,25.414932 43,22.75 z"
         id="path3451" />
      <path
         style="opacity:1;fill:none;fill-opacity:1;fill-rule:nonzero;stroke:#ffff00;stroke-width:1;stroke-linecap:round;stroke-linejoin:round;stroke-miterlimit:4;stroke-dasharray:none;stroke-dashoffset:0;stroke-opacity:1"
         d="M 32,42 C 28.688,42 26,44.688 26,48 C 26,51.312 28.688,54 32,54 C 35.312,54 38,51.312 38,48 C 38,44.688 35.312,42 32,42 z M 32,44 C 34.208,44 36,45.792 36,48 C 36,50.208 34.208,52 32,52 C 29.792,52 28,50.208 28,48 C 28,45.792 29.792,44 32,44 z"
         id="path3453" />
      <path
         sodipodi:type="arc"
         style="opacity:1;fill:none;fill-opacity:1;fill-rule:nonzero;stroke:#ffff00;stroke-width:1;stroke-linecap:round;stroke-linejoin:round;stroke-miterlimit:4;stroke-dasharray:none;stroke-dashoffset:0;stroke-opacity:1"
         id="path3455"
         sodipodi:cx="32"
         sodipodi:cy="48"
         sodipodi:rx="10"
         sodipodi:ry="10"
         d="M 42,48 A 10,10 0 1 1 22,48 A 10,10 0 1 1 42,48 z" />
      <path
         style="fill:none;fill-opacity:0.75;fill-rule:evenodd;stroke:#ffff00;stroke-width:1px;stroke-linecap:butt;stroke-linejoin:miter;stroke-opacity:1"
         d="M 27,37 L 18,28"
         id="path3457"
         sodipodi:nodetypes="cc" />
      <path
         id="path3459"
         d="M 46,68 L 37,59"
         style="fill:none;fill-opacity:0.75;fill-rule:evenodd;stroke:#ffff00;stroke-width:1px;stroke-linecap:butt;stroke-linejoin:miter;stroke-opacity:1"
         sodipodi:nodetypes="cc" />
      <path
         style="fill:none;fill-opacity:0.75;fill-rule:evenodd;stroke:#ffff00;stroke-width:1px;stroke-linecap:butt;stroke-linejoin:miter;stroke-opacity:1"
         d="M 43,43 L 47,39"
         id="path3461"
         sodipodi:nodetypes="cc" />
      <path
         id="path3463"
         d="M 12,62 L 21,53"
         style="fill:none;fill-opacity:0.75;fill-rule:evenodd;stroke:#ffff00;stroke-width:1px;stroke-linecap:butt;stroke-linejoin:miter;stroke-opacity:1"
         sodipodi:nodetypes="cc" />
    </g>
  </g>
  <g
     inkscape:groupmode="layer"
     id="layer5"
     inkscape:label="arrows"
     style="display:inline"
     sodipodi:insensitive="true" />
  <g
     inkscape:groupmode="layer"
     id="layer4"
     inkscape:label="car"
     sodipodi:insensitive="true">
    <path
       style="fill:none;fill-opacity:0.75;fill-rule:evenodd;stroke:#ff0000;stroke-width:1px;stroke-linecap:butt;stroke-linejoin:miter;stroke-opacity:1;display:inline"
       d="M 124,14 C 124,14 106,14 96,14 C 91,14 85,19 85,24 L 85,30 C 85,30 83,30 83,32 C 83,32 83,52 83,52 C 83,54 85,54 85,54 L 85,90 C 85,90 81,90 81,94 L 81,116 C 81,120 85,120 85,120 L 85,126 C 85,131 86,134 91,134 L 129,134 C 134,134 135,131 135,126 L 135,120 C 135,120 139,120 139,116 L 139,94 C 139,90 135,90 135,90 L 135,54 C 135,54 137,54 137,52 L 137,32 C 137,30 135,30 135,30 L 135,24 C 135,18.999791 129,14 124,14 z"
       id="path3465"
       sodipodi:nodetypes="cssssssssssssccccccccccsc" />
    <rect
       style="opacity:1;fill:none;fill-opacity:1;fill-rule:nonzero;stroke:#ff0000;stroke-width:1;stroke-linecap:round;stroke-linejoin:round;stroke-miterlimit:4;stroke-dasharray:none;stroke-dashoffset:0;stroke-opacity:1"
       id="rect3469"
       width="10"
       height="20"
       x="85"
       y="32"
       ry="1.9872591"
       rx="1.9872591" />
    <rect
       ry="1.9872591"
       y="32"
       x="125"
       height="20"
       width="10"
       id="rect3471"
       style="opacity:1;fill:none;fill-opacity:1;fill-rule:nonzero;stroke:#ff0000;stroke-width:1;stroke-linecap:round;stroke-linejoin:round;stroke-miterlimit:4;stroke-dasharray:none;stroke-dashoffset:0;stroke-opacity:1"
       rx="1.9872591" />
    <rect
       ry="1.9872591"
       y="92"
       x="83"
       height="26"
       width="12"
       id="rect3473"
       style="opacity:1;fill:none;fill-opacity:1;fill-rule:nonzero;stroke:#ff0000;stroke-width:1;stroke-linecap:round;stroke-linejoin:round;stroke-miterlimit:4;stroke-dasharray:none;stroke-dashoffset:0;stroke-opacity:1"
       rx="1.9872591" />
    <rect
       rx="1.9872591"
       style="opacity:1;fill:none;fill-opacity:1;fill-rule:nonzero;stroke:#ff0000;stroke-width:1;stroke-linecap:round;stroke-linejoin:round;stroke-miterlimit:4;stroke-dasharray:none;stroke-dashoffset:0;stroke-opacity:1"
       id="rect3477"
       width="12"
       height="26"
       x="125"
       y="92"
       ry="1.9872591" />
    <path
       style="fill:none;fill-opacity:0.75;fill-rule:evenodd;stroke:#ff0000;stroke-width:1px;stroke-linecap:butt;stroke-linejoin:miter;stroke-opacity:1"
       d="M 107,31 C 107,31 107,45 107,47 C 107,49 107,49 109,49 L 111,49 C 113,49 113,49 113,47 C 113,45 113,31 113,31"
       id="path3479"
       sodipodi:nodetypes="csccsc" />
    <path
       style="fill:none;fill-opacity:0.75;fill-rule:evenodd;stroke:#ff0000;stroke-width:1px;stroke-linecap:butt;stroke-linejoin:miter;stroke-opacity:1"
       d="M 103,29 C 103,27 106,27 106,27 L 114,27 C 114,27 117,27 117,29 C 117,31 117,41 117,45 C 117,51 117,51 110,51 C 103,51 103,51 103,45 C 103,39 103.09181,29.212123 103,29 z"
       id="path3481"
       sodipodi:nodetypes="cccssssc" />
    <path
       style="fill:none;fill-opacity:0.75;fill-rule:evenodd;stroke:#ff0000;stroke-width:1px;stroke-linecap:butt;stroke-linejoin:miter;stroke-opacity:1"
       d="M 106,51 L 106,58 L 114,58 L 114,51"
       id="path3483" />
    <path
       style="fill:none;fill-opacity:0.75;fill-rule:evenodd;stroke:#ff0000;stroke-width:1px;stroke-linecap:butt;stroke-linejoin:miter;stroke-opacity:1"
       d="M 108,58 L 108,70 L 112,70 L 112,58"
       id="path3485" />
    <path
       style="fill:none;fill-opacity:0.75;fill-rule:evenodd;stroke:#ff0000;stroke-width:1px;stroke-linecap:butt;stroke-linejoin:miter;stroke-opacity:1"
       d="M 106,70 L 114,70 L 114,74 L 106,74 L 106,70 z"
       id="path3487" />
    <path
       style="fill:none;fill-opacity:0.75;fill-rule:evenodd;stroke:#ff0000;stroke-width:1px;stroke-linecap:butt;stroke-linejoin:miter;stroke-opacity:1"
       d="M 108,74 L 108,100 L 112,100 L 112,74"
       id="path3489"
       sodipodi:nodetypes="cccc" />
    <path
       style="fill:none;fill-opacity:0.75;fill-rule:evenodd;stroke:#ff0000;stroke-width:1px;stroke-linecap:butt;stroke-linejoin:miter;stroke-opacity:1"
       d="M 112,86 L 114,86 L 114,88 L 112,88"
       id="path3491" />
    <path
       style="fill:none;fill-opacity:0.75;fill-rule:evenodd;stroke:#ff0000;stroke-width:1px;stroke-linecap:butt;stroke-linejoin:miter;stroke-opacity:1"
       d="M 106,100 L 114,100 L 114,110 L 106,110 L 106,100 z"
       id="path3493" />
    <path
       style="fill:none;fill-opacity:0.75;fill-rule:evenodd;stroke:#ff0000;stroke-width:1px;stroke-linecap:butt;stroke-linejoin:miter;stroke-opacity:1"
       d="M 108,110 L 108,112 L 112,112 L 112,110"
       id="path3495" />
    <path
       style="fill:none;fill-opacity:0.75;fill-rule:evenodd;stroke:#ff0000;stroke-width:1px;stroke-linecap:butt;stroke-linejoin:miter;stroke-opacity:1"
       d="M 95,41 L 101,41 L 101,43 L 95,43"
       id="path3497"
       sodipodi:nodetypes="cccc" />
    <path
       style="fill:none;fill-opacity:0.75;fill-rule:evenodd;stroke:#ff0000;stroke-width:1px;stroke-linecap:butt;stroke-linejoin:miter;stroke-opacity:1"
       d="M 125,43 L 119,43 L 119,41 L 125,41"
       id="path3499" />
    <path
       style="fill:none;fill-opacity:0.75;fill-rule:evenodd;stroke:#ff0000;stroke-width:1px;stroke-linecap:butt;stroke-linejoin:miter;stroke-opacity:1"
       d="M 95,104 L 104,104 L 104,106 L 95,106"
       id="path3501" />
    <path
       style="fill:none;fill-opacity:0.75;fill-rule:evenodd;stroke:#ff0000;stroke-width:1px;stroke-linecap:butt;stroke-linejoin:miter;stroke-opacity:1"
       d="M 125,104 L 116,104 L 116,106 L 125,106"
       id="path3503" />
  </g>
  <path
     style="fill:#00ff00;fill-opacity:0.75;fill-rule:evenodd;stroke:#008000;stroke-width:1px;stroke-linecap:butt;stroke-linejoin:miter;stroke-opacity:1"
     d="M 65,40 L 65,48 L 71,48 L 71,52 L 79,44 L 71,36 L 71,40 L 65,40 z"
     id="path3506" />
  <path
     id="path3508"
     d="M 65,104 L 65,112 L 71,112 L 71,116 L 79,108 L 71,100 L 71,104 L 65,104 z"
     style="fill:#00ff00;fill-opacity:0.75;fill-rule:evenodd;stroke:#008000;stroke-width:1px;stroke-linecap:butt;stroke-linejoin:miter;stroke-opacity:1" />
</svg>
