<?xml version="1.0" encoding="UTF-8" standalone="no"?>
<!-- Created with Inkscape (http://www.inkscape.org/) -->
<svg
   xmlns:dc="http://purl.org/dc/elements/1.1/"
   xmlns:cc="http://web.resource.org/cc/"
   xmlns:rdf="http://www.w3.org/1999/02/22-rdf-syntax-ns#"
   xmlns:svg="http://www.w3.org/2000/svg"
   xmlns="http://www.w3.org/2000/svg"
   xmlns:xlink="http://www.w3.org/1999/xlink"
   xmlns:sodipodi="http://sodipodi.sourceforge.net/DTD/sodipodi-0.dtd"
   xmlns:inkscape="http://www.inkscape.org/namespaces/inkscape"
   width="144"
   height="80"
   id="svg2"
   sodipodi:version="0.32"
   inkscape:version="0.45.1"
   version="1.0"
   sodipodi:docbase="/home/dfcastelao/moviditas/graficos/f1_spirit"
   sodipodi:docname="car-stock-1-top.svg"
   inkscape:output_extension="org.inkscape.output.svg.inkscape"
   inkscape:export-filename="/home/dfcastelao/moviditas/remakes/f1_spirit/juego/graphics/car-stock-1-top.png"
   inkscape:export-xdpi="90"
   inkscape:export-ydpi="90">
  <defs
     id="defs4" />
  <sodipodi:namedview
     id="base"
     pagecolor="#ffffff"
     bordercolor="#666666"
     borderopacity="1.0"
     gridtolerance="10000"
     guidetolerance="10"
     objecttolerance="10"
     inkscape:pageopacity="0.0"
     inkscape:pageshadow="2"
     inkscape:zoom="5.8434519"
     inkscape:cx="102.65969"
     inkscape:cy="22.24673"
     inkscape:document-units="px"
     inkscape:current-layer="layer2"
     width="144px"
     height="80px"
     showgrid="true"
     inkscape:grid-points="true"
     showguides="true"
     inkscape:guide-bbox="true"
     inkscape:window-width="1280"
     inkscape:window-height="975"
     inkscape:window-x="0"
     inkscape:window-y="0" />
  <metadata
     id="metadata7">
    <rdf:RDF>
      <cc:Work
         rdf:about="">
        <dc:format>image/svg+xml</dc:format>
        <dc:type
           rdf:resource="http://purl.org/dc/dcmitype/StillImage" />
      </cc:Work>
    </rdf:RDF>
  </metadata>
  <g
     inkscape:label="Lamborghini"
     inkscape:groupmode="layer"
     id="layer1"
     style="display:none"
     sodipodi:insensitive="true">
    <image
       y="56.714287"
       x="0"
       id="image2576"
       height="68"
       width="144"
       sodipodi:absref="/home/dfcastelao/moviditas/remakes/f1_spirit/svn/trunk/graphics/car-stock-3-side.png"
       xlink:href="/home/dfcastelao/moviditas/remakes/f1_spirit/svn/trunk/graphics/car-stock-3-side.png" />
    <image
       y="0"
       x="0"
       id="image2619"
       height="80"
       width="144"
       sodipodi:absref="/home/dfcastelao/moviditas/remakes/f1_spirit/svn/trunk/graphics/car-stock-3-top.png"
       xlink:href="/home/dfcastelao/moviditas/remakes/f1_spirit/svn/trunk/graphics/car-stock-3-top.png" />
  </g>
  <g
     inkscape:groupmode="layer"
     id="layer3"
     inkscape:label="Stock 1"
     style="display:none"
     sodipodi:insensitive="true">
    <image
       style="display:inline"
       y="8"
       x="0"
       id="image2428"
       height="64"
       width="144"
       sodipodi:absref="/home/dfcastelao/moviditas/remakes/f1_spirit/svn/trunk/graphics/car-stock-1-side.png"
       xlink:href="/home/dfcastelao/moviditas/remakes/f1_spirit/svn/trunk/graphics/car-stock-1-side.png" />
  </g>
  <g
     inkscape:groupmode="layer"
     id="layer2"
     inkscape:label="cochecito leré">
    <path
       style="fill:none;fill-opacity:1;stroke:#e02020;stroke-width:1;stroke-miterlimit:4;stroke-dasharray:none;stroke-opacity:0.94117647"
       d="M 25,70 C 15.298575,67.574644 12,60 12,55 C 12,45.668806 12,28.035714 12,25 C 12,20 15.513167,13.162278 25,10 C 32.5,7.5 55,10 75,10 C 85,10 100,8 110,8 C 120,8 125,13 125,13 L 118,13 L 118,67 L 125,67 C 125,67 120,72 110,72 C 100,72 85,70 75,70 C 55,70 35,72.5 25,70 z "
       id="path2623"
       sodipodi:nodetypes="cssssssccccss" />
    <path
       style="fill:none;fill-opacity:1;stroke:#e02020;stroke-width:1;stroke-miterlimit:4;stroke-dasharray:none;stroke-opacity:0.94117647"
       d="M 55,15 L 68,25 C 65,35 65,45 68,55 L 55,65 C 53,65 49,52.5 49,40 C 49,27.5 53,15 55,15 z "
       id="path3594"
       sodipodi:nodetypes="ccccsc" />
    <path
       style="fill:none;fill-opacity:1;stroke:#e02020;stroke-width:1;stroke-miterlimit:4;stroke-dasharray:none;stroke-opacity:0.94117647"
       d="M 58,15 L 70,24 L 90,24 L 87,15 L 58,15 z "
       id="path3596"
       sodipodi:nodetypes="ccccc" />
    <path
       style="fill:none;fill-opacity:1;stroke:#e02020;stroke-width:1;stroke-miterlimit:4;stroke-dasharray:none;stroke-opacity:0.94117647"
       d="M 70,56 L 58,65 L 87,65 L 90,56 L 70,56 z "
       id="path3598" />
    <g
       id="g3651"
       transform="translate(-2.5,0)">
      <path
         sodipodi:nodetypes="ccccccccccccccc"
         id="path3600"
         d="M 45.5,34 L 45.5,46 L 43.5,49 L 37.5,49 L 37.5,45 L 36.5,45 L 36.5,43 L 34.5,43 L 34.5,37 L 36.5,37 L 36.5,35 L 37.5,35 L 37.5,31 L 43,31 L 45.5,34 z "
         style="fill:none;fill-opacity:1;stroke:#e02020;stroke-width:1;stroke-miterlimit:4;stroke-dasharray:none;stroke-opacity:0.94117647" />
      <path
         sodipodi:nodetypes="cccccc"
         id="path3606"
         d="M 36.5,35 L 43.5,35 L 44.5,36 L 43.5,37 L 36.5,37 L 36.5,35 z "
         style="fill:none;fill-opacity:1;stroke:#e02020;stroke-width:1;stroke-miterlimit:4;stroke-dasharray:none;stroke-opacity:0.94117647" />
      <path
         style="fill:none;fill-opacity:1;stroke:#e02020;stroke-width:1;stroke-miterlimit:4;stroke-dasharray:none;stroke-opacity:0.94117647"
         d="M 36.5,43 L 43.5,43 L 44.5,44 L 43.5,45 L 36.5,45 L 36.5,43 z "
         id="path3608"
         sodipodi:nodetypes="cccccc" />
      <path
         sodipodi:nodetypes="cccc"
         id="path3610"
         d="M 45.5,46 L 47.5,46 L 47.5,34 L 45.5,34"
         style="fill:none;fill-opacity:1;stroke:#e02020;stroke-width:1;stroke-miterlimit:4;stroke-dasharray:none;stroke-opacity:0.94117647" />
    </g>
    <path
       style="fill:none;fill-opacity:1;stroke:#e02020;stroke-width:0.5;stroke-miterlimit:4;stroke-dasharray:none;stroke-opacity:0.94117647"
       d="M 12,28 C 12,28 14.097097,23.980581 19,23 C 24,22 50,20 50,20"
       id="path3612"
       sodipodi:nodetypes="csc" />
    <path
       sodipodi:nodetypes="csc"
       id="path3614"
       d="M 12,52 C 12,52 15.097097,56.019419 20,57 C 25,58 50,60 50,60"
       style="fill:none;fill-opacity:1;stroke:#e02020;stroke-width:0.5;stroke-miterlimit:4;stroke-dasharray:none;stroke-opacity:0.94117647" />
    <path
       style="fill:none;fill-opacity:1;stroke:#e02020;stroke-width:0.5;stroke-miterlimit:4;stroke-dasharray:none;stroke-opacity:0.94117647"
       d="M 15,17 C 15,17 18,13 20,13 C 19.821429,16.517857 20,23 20,23"
       id="path3618"
       sodipodi:nodetypes="ccc" />
    <path
       style="fill:none;fill-opacity:1;stroke:#e02020;stroke-width:0.5;stroke-miterlimit:4;stroke-dasharray:none;stroke-opacity:0.94117647"
       d="M 15,64 C 15,64 18,67 20,67 C 20,65 20,57 20,57"
       id="path3620"
       sodipodi:nodetypes="ccc" />
    <path
       style="fill:none;fill-opacity:1;stroke:#e02020;stroke-width:1;stroke-miterlimit:4;stroke-dasharray:none;stroke-opacity:0.94117647"
       d="M 107,30 C 107,30 111,33 111,40 C 111,47 107,50 107,50 L 93,54 C 93,54 99,51 99,40 C 99,30 93,26 93,26 L 107,30 z "
       id="path3624"
       sodipodi:nodetypes="czcczcc" />
    <path
       style="fill:none;fill-opacity:1;stroke:#e02020;stroke-width:1;stroke-miterlimit:4;stroke-dasharray:none;stroke-opacity:0.94117647"
       d="M 118,13 L 134,13 L 134,67 L 118,67 L 118,13 z "
       id="path3626"
       sodipodi:nodetypes="ccccc" />
    <path
       style="fill:none;fill-opacity:1;stroke:#e02020;stroke-width:0.5;stroke-miterlimit:4;stroke-dasharray:none;stroke-opacity:0.94117647"
       d="M 121,13 L 121,67"
       id="path3628" />
    <path
       style="fill:none;fill-opacity:1;stroke:#e02020;stroke-width:0.5;stroke-miterlimit:4;stroke-dasharray:none;stroke-opacity:0.94117647"
       d="M 15,40 C 15,39 16,38 17,38 C 18,38 20,39 20,40 C 20,41 18,42 17,42 C 16,42 15,41 15,40 z "
       id="path3657"
       sodipodi:nodetypes="czzzz" />
    <path
       style="fill:none;fill-opacity:1;stroke:#e02020;stroke-width:0.5;stroke-miterlimit:4;stroke-dasharray:none;stroke-opacity:0.94117647"
       d="M 110,10 C 112.06387,10.063866 113,11 113,12 C 113,13 112,14 110,14 C 108,14 107,13 107,12 C 107,11 107.93613,9.9361344 110,10 z "
       id="path3661"
       sodipodi:nodetypes="czzzz" />
    <path
       style="fill:none;fill-opacity:0.94117856;stroke:#e12020;stroke-width:1;stroke-miterlimit:4;stroke-dasharray:none;stroke-opacity:0.94117856;stroke-linecap:butt"
       d="M 88,65 C 105,60 107,51 107,51"
       id="path2188"
       sodipodi:nodetypes="cc" />
    <path
       style="fill:none;fill-opacity:0.94117856;stroke:#e12020;stroke-width:1;stroke-miterlimit:4;stroke-dasharray:none;stroke-opacity:0.94117856;stroke-linecap:butt"
       d="M 88,15 C 105,20 107,29 107,29"
       id="path2190"
       sodipodi:nodetypes="cc" />
    <path
       style="fill:none;fill-opacity:0.94117856;stroke:#e12020;stroke-width:0.5;stroke-miterlimit:4;stroke-dasharray:none;stroke-opacity:0.94117856"
       d="M 105,23 C 110,23 118,21 118,21 L 118,21"
       id="path3164"
       sodipodi:nodetypes="ccc" />
    <path
       style="fill:none;fill-opacity:0.94117856;stroke:#e12020;stroke-width:0.5;stroke-miterlimit:4;stroke-dasharray:none;stroke-opacity:0.94117856"
       d="M 105,57 C 110,57 118,59 118,59"
       id="path3166"
       sodipodi:nodetypes="cc" />
  </g>
</svg>
